<svg width="500" height="140" viewBox="0 0 500 140" fill="none" xmlns="http://www.w3.org/2000/svg">
<path d="M54.2644 109.197C57.7579 95.4588 55.5539 83.1629 47.0471 71.1466C41.6119 80.0067 36.4598 88.4051 31.3048 96.8084C16.4653 86.7104 11.0051 63.5459 19.788 48.4515C25.2298 39.0992 30.9872 29.9305 36.6102 20.6838C37.7414 18.8237 38.6692 16.7188 41.5897 18.2654C44.4303 19.7696 43.423 21.629 42.4893 23.7006C35.6214 38.9391 37.1519 53.3646 46.9929 67.8315C53.3299 59.5634 57.5571 50.5509 63.1745 42.4761C78.4989 53.9425 83.2198 75.9751 73.8836 91.8134C68.5582 100.848 63.047 109.773 57.6163 118.745C56.5083 120.575 55.6935 122.883 52.7422 121.153C50.1478 119.632 50.7639 117.754 51.7574 115.609C52.663 113.654 53.3402 111.593 54.2644 109.197Z" fill="#2664EB"/>
<path d="M107.732 43.138C107.186 35.5155 112.571 38.1943 115.996 37.6856C120.282 37.049 121.073 39.5943 120.944 43.1052C120.737 48.7631 120.739 54.4298 120.469 60.084C120.289 63.8606 121.089 65.9949 125.652 65.7282C132.129 65.3495 138.648 65.5037 145.142 65.689C148.559 65.7864 149.965 64.6232 149.867 61.1038C149.696 54.943 149.965 48.7704 149.811 42.6086C149.721 38.9925 151.048 37.614 154.76 37.5987C163.04 37.5648 163.057 37.4023 163.065 45.7513C163.08 63.0825 163.102 80.4139 163.04 97.7449C163.033 99.9461 163.831 103.004 160.858 103.732C157.688 104.507 154.198 104.891 151.075 103.366C149.571 102.631 149.863 100.753 149.857 99.2699C149.833 93.2706 149.703 87.2668 149.894 81.2737C150.008 77.7087 148.923 76.1086 145.089 76.2434C138.431 76.4773 131.754 76.4674 125.095 76.2608C121.179 76.1392 120.28 77.8763 120.471 81.4149C120.796 87.3965 120.693 93.4 120.875 99.391C121.046 104.997 117.071 104.036 113.635 104.21C109.94 104.397 107.644 103.641 107.681 99.1156C107.833 80.6191 107.736 62.1206 107.732 43.138Z" fill="black"/>
<path d="M249.666 104.577C237.023 102.83 229.967 94.7116 229.3 80.4699C228.831 70.4496 231.831 61.3989 241.256 56.38C249.949 51.7512 258.914 52.2085 267.18 57.983C273.029 62.0689 277.095 73.5248 275.547 80.3866C274.995 82.8316 273.264 82.4099 271.682 82.4155C263.697 82.4437 255.711 82.3919 247.726 82.4363C245.939 82.4463 244.056 81.9859 242.158 83.2277C241.695 87.7623 243.676 91.2625 247.619 93.3341C251.805 95.5337 256.949 96.3057 260.23 92.7432C264.655 87.9379 269.124 88.8883 274.116 90.2824C275.639 98.9362 261.842 106.669 249.666 104.577ZM247.812 73.7762C253.001 73.5621 258.269 74.3118 263.544 73.171C262.732 67.6245 259.87 64.6436 255.241 63.5924C250.769 62.5766 247.077 64.3321 244.193 67.7949C243.123 69.0794 241.948 70.5237 242.573 72.2832C243.315 74.369 245.371 73.5185 247.812 73.7762Z" fill="black"/>
<path d="M342.752 56.4719C354.974 50.7469 368.058 53.4581 374.441 62.7794C381.747 73.4505 380.588 90.474 371.686 98.7422C364.258 105.641 355.359 106.639 346.134 103.342C337.526 100.266 332.981 93.51 331.695 84.6259C330.065 73.361 332.284 63.4648 342.752 56.4719ZM362.147 66.3447C356.112 60.748 347.245 63.4019 344.848 72.2922C343.549 77.113 343.615 82.1417 345.188 86.9944C346.653 91.5155 349.684 94.33 354.537 94.6192C359.659 94.9246 363.122 92.2814 364.864 87.6527C367.585 80.4242 367.27 73.3937 362.147 66.3447Z" fill="black"/>
<path d="M473.675 54.8043C478.512 56.5945 481.625 59.6369 483.495 64.0016C484.64 66.6722 483.993 68.0542 480.931 68.313C477.048 68.6414 473.179 69.9001 470.504 65.3117C469.295 63.239 466.518 63.1729 464.119 63.233C460.776 63.3166 457.266 63.8869 456.767 67.7109C456.266 71.5579 459.852 72.3893 462.755 73.1501C466.61 74.1607 470.576 74.7723 474.398 75.8862C481.307 77.8998 484.842 81.8733 485.346 87.3422C486.004 94.4688 482.481 99.1689 476.566 102.2C469.044 106.053 461.09 105.973 453.32 103.138C447.719 101.094 443.978 97.0175 442.896 90.9154C449.658 87.6632 452.258 87.9897 456.953 92.5205C459.794 95.2613 466.716 95.8859 470.061 93.7034C473.404 91.5224 473.443 88.1204 469.947 86.2036C468.239 85.2675 466.214 84.8696 464.295 84.3707C461.886 83.7443 459.421 83.3342 457.012 82.7083C448.224 80.4251 443.424 75.0392 443.917 68.0998C444.442 60.719 450.342 54.8386 458.939 53.8408C463.692 53.2892 468.583 53.0517 473.675 54.8043Z" fill="black"/>
<path d="M291.952 54.7222C295.948 65.9926 299.606 77.0053 303.663 89.2188C306.846 79.2736 309.716 70.3761 312.539 61.4636C315.101 53.3762 315.073 53.5005 323.225 53.8176C327.169 53.971 327.642 55.55 326.432 58.8855C321.953 71.2334 317.613 83.6319 313.22 96.0109C313.109 96.3244 312.979 96.6313 312.864 96.9433C310.35 103.741 305.553 106.105 298.75 103.989C297.504 103.602 296.677 102.871 296.27 101.748C290.679 86.3059 285.12 70.8522 279.454 55.1255C283.877 53.2651 287.733 53.6516 291.952 54.7222Z" fill="black"/>
<path d="M420.83 102.446C416.125 99.2052 414.565 94.9068 414.644 89.7308C414.748 82.907 414.59 76.0791 414.705 69.2556C414.756 66.2489 414.4 64.047 410.611 63.9383C407.567 63.851 407.566 61.3653 407.692 59.1429C407.807 57.1219 406.973 54.1448 410.161 54.079C414.573 53.988 415.067 51.4398 414.632 48.1571C413.971 43.1696 416.31 41.8991 420.915 41.9217C425.486 41.9442 427.997 43.2097 427.279 48.1793C426.651 52.529 428.436 54.3632 432.848 53.872C436.172 53.502 437.183 55.4477 437.111 58.4756C437.042 61.3237 436.918 64.2182 433.104 63.948C428.059 63.5906 426.914 65.959 427.187 70.5051C427.534 76.3114 427.356 82.1542 427.275 87.9794C427.224 91.5563 428.426 93.7934 432.378 93.7373C437.668 93.6621 436.598 98.105 437.077 100.964C437.659 104.434 434.617 104.27 432.316 104.36C428.496 104.51 424.632 104.799 420.83 102.446Z" fill="black"/>
<path d="M400.348 50.014C400.348 66.4669 400.186 82.4256 400.446 98.3773C400.523 103.106 398.802 104.365 394.381 104.305C390.107 104.248 387.573 103.714 387.646 98.4109C387.898 79.9653 387.911 61.5112 387.618 43.0666C387.534 37.8252 390.122 37.5908 394.06 37.5902C397.98 37.5895 401.11 37.7677 400.389 43.0414C400.099 45.1622 400.346 47.3563 400.348 50.014Z" fill="black"/>
<path d="M197.699 98.8133C197.694 85.707 197.629 73.0801 197.749 60.4549C197.773 57.9447 196.377 54.0482 200.92 54.0324C204.624 54.0197 209.879 51.5416 210.461 59.0622C214.891 54.7713 219.873 51.5327 225.021 54.3282C228.257 56.0852 225.862 60.9358 226.103 64.1327C224.322 65.1714 223.019 64.4631 221.726 64.4509C214.822 64.3857 210.433 68.5226 210.345 75.4381C210.246 83.2453 210.225 91.0559 210.347 98.8622C210.399 102.197 209.69 104.5 205.742 104.12C202.309 103.79 197.401 105.863 197.699 98.8133Z" fill="black"/>
<path d="M186.072 54.9606C187.878 61.0256 186.947 66.8667 187.055 72.6537C187.219 81.4682 186.963 90.2901 187.097 99.1056C187.193 105.473 182.625 103.89 179.058 104.157C174.934 104.467 173.88 102.247 174.235 98.5856C175.458 85.9688 173.409 73.3325 174.483 60.6916C175.083 53.6293 174.777 53.5738 181.909 53.9086C183.206 53.9695 184.486 54.3802 186.072 54.9606Z" fill="black"/>
<path d="M176.243 36.06C176.87 35.6636 177.147 35.4718 177.453 35.357C181.364 33.889 184.791 34.5796 186.745 38.3983C188.182 41.2082 188.008 44.3382 185.132 46.3889C181.985 48.6325 178.529 48.8848 175.703 45.9372C172.733 42.8395 172.895 39.452 176.243 36.06Z" fill="black"/>
</svg>
